# xmcd
#
# Track frame offsets:
# 150
# 19762
# 36089
# 55290
# 73747
# 94520
# 112483
# 129419
# 142629
# 162683
# 181872
# 200047
#
# Disc length: 2915 seconds
#
# Revision: 1
# Processed by: cddbd v1.5.2PL0 Copyright (c) Steve Scherf et al.
# Submitted via: CdCzar 6.3b
#
DISCID=ac0b610c
DTITLE=Wildflowers - On The Inside
DYEAR=2015
DGENRE=country
TTITLE0=Take Me Home
TTITLE1=Edge Of The Road
TTITLE2=Another Million Miles
TTITLE3=Trust
TTITLE4=Friends
TTITLE5=On The Inside [Explicit]
TTITLE6=Let It Go
TTITLE7=100 Personalities
TTITLE8=Where The Flowers Don't Grow
TTITLE9=Fall Out Of Favour
TTITLE10=Chemistry
TTITLE11=Skyscrapers [Explicit]
EXTD=
EXTT0=
EXTT1=
EXTT2=
EXTT3=
EXTT4=
EXTT5=
EXTT6=
EXTT7=
EXTT8=
EXTT9=
EXTT10=
EXTT11=
PLAYORDER=
